# xmcd
#
# Track frame offsets: 
#        150
#        25687
#        49775
#        73555
#        97397
#        122072
#        143427
#        161092
#        176550
#        211830
#        232275
#
# Disc length: 3433 seconds
#
# Revision: 8
# Processed by: cddbd v1.5.2PL0 Copyright (c) Steve Scherf et al.
# Submitted via: ExactAudioCopyFreeDBPlugin 1.0
#
DISCID=9b0d670b
DTITLE=Buddy Guy - Heavy Love
DYEAR=1998
DGENRE=Blues
TTITLE0=Heavy Love
TTITLE1=Midnight Train (Featuring Jonny Lang)
TTITLE2=I Got A Problem
TTITLE3=I Need You Tonight
TTITLE4=Saturday Night Fish Fry
TTITLE5=Had A Bad Night
TTITLE6=Are You Lonely For Me Baby
TTITLE7=I Just Want To Make Love To You
TTITLE8=Did Somebody Make A Fool Out Of You
TTITLE9=When The Time Is Right
TTITLE10=Let Me Show You
EXTD=YEAR: 1998
EXTT0=
EXTT1=featuring Jonny Lang\n
EXTT2=
EXTT3=
EXTT4=
EXTT5=
EXTT6=
EXTT7=
EXTT8=
EXTT9=
EXTT10=
PLAYORDER=
